<svg width="100%" height="100%" viewBox="0 0 2441 691" version="1.1" xmlns="http://www.w3.org/2000/svg" xmlns:xlink="http://www.w3.org/1999/xlink" xml:space="preserve" xmlns:serif="http://www.serif.com/" style="fill-rule:evenodd;clip-rule:evenodd;stroke-linejoin:round;stroke-miterlimit:2;">
    <g transform="matrix(1,0,0,1,-64.345,-928.653)">
        <g id="Layer-1" serif:id="Layer 1" transform="matrix(4.16667,0,0,4.16667,0,0)">
            <g transform="matrix(1,0,0,1,593.259,231.099)">
                <path d="M0,-0.96C1.2,-0.96 3.121,-0.761 3.121,-2.341C3.121,-3.44 1.881,-3.601 0.841,-3.601L-1.66,-3.601L-1.66,-0.96L0,-0.96ZM3.981,3.901L2.741,3.901L0.32,-0L-1.66,-0L-1.66,3.901L-2.62,3.901L-2.62,-4.562L1.081,-4.562C3.321,-4.562 4.081,-3.721 4.081,-2.32C4.081,-0.66 2.921,-0.04 1.421,-0L3.981,3.901ZM6.962,-0.5C6.962,-4.261 3.961,-7.262 0.2,-7.262C-3.58,-7.262 -6.601,-4.261 -6.601,-0.5C-6.601,3.301 -3.58,6.302 0.2,6.302C3.961,6.302 6.962,3.301 6.962,-0.5M-7.562,-0.5C-7.562,-4.761 -4.08,-8.222 0.2,-8.222C4.461,-8.222 7.922,-4.761 7.922,-0.5C7.922,3.78 4.461,7.262 0.2,7.262C-4.08,7.262 -7.562,3.78 -7.562,-0.5" style="fill:rgb(35,31,32);fill-rule:nonzero;"/>
            </g>
            <g transform="matrix(1,0,0,1,25.5068,223.423)">
                <path d="M119.557,160.017L-10.064,160.017L54.85,0L119.557,160.017Z" style="fill:rgb(237,33,39);fill-rule:nonzero;"/>
            </g>
            <g transform="matrix(1,0,0,1,265.86,351.81)">
                <path d="M0,-91.619C-11.914,-106.202 -32.866,-116.062 -51.968,-116.062C-90.589,-116.062 -122.428,-82.788 -122.428,-44.784C-122.428,-26.708 -114.624,-9.658 -101.68,3.081C-88.739,15.405 -70.253,24.442 -51.968,24.442C-34.097,24.442 -11.502,14.79 0,0.821L0,14.378C-14.586,26.495 -32.457,33.688 -51.559,33.688C-59.228,33.688 -66.722,32.552 -73.86,30.44C-106.876,20.674 -132.291,-9.964 -132.291,-45.603C-132.291,-89.562 -95.312,-125.307 -51.355,-125.307C-32.658,-125.307 -13.761,-117.912 0,-105.178L0,-91.619Z" style="fill:rgb(128,130,133);fill-rule:nonzero;"/>
            </g>
            <g transform="matrix(1,0,0,1,286.474,223.423)">
                <path d="M119.55,160.017L-10.067,160.017L54.843,0L119.55,160.017Z" style="fill:rgb(31,68,152);fill-rule:nonzero;"/>
            </g>
            <g transform="matrix(1,0,0,1,560.608,356.737)">
                <path d="M0,-101.473L-0.41,-101.473L-54.436,31.841L-108.253,-101.473L-135.163,26.703L-144.615,26.703L-111.336,-133.314L-54.436,7.605L2.67,-133.314L35.949,26.703L26.5,26.703L0,-101.473Z" style="fill:rgb(128,130,133);fill-rule:nonzero;"/>
            </g>
        </g>
    </g>
</svg>